<?xml version="1.0" standalone="no"?>
<!DOCTYPE svg PUBLIC "-//W3C//DTD SVG 20010904//EN"
 "http://www.w3.org/TR/2001/REC-SVG-20010904/DTD/svg10.dtd">
<svg version="1.0" xmlns="http://www.w3.org/2000/svg"
 width="1000.000000pt" height="1000.000000pt" viewBox="0 0 1000.000000 1000.000000"
 preserveAspectRatio="xMidYMid meet">
<metadata>
Created by potrace 1.11, written by Peter Selinger 2001-2013
</metadata>
<g transform="translate(0.000000,1000.000000) scale(0.100000,-0.100000)"
fill="#000000" stroke="none">
<path d="M5112 7149 c-61 -11 -94 -35 -202 -143 l-95 -96 34 0 c28 0 47 13
125 89 71 69 102 92 136 101 91 24 182 -17 224 -102 30 -59 33 -103 11 -156
-21 -50 -425 -457 -480 -483 -100 -46 -216 0 -260 103 -8 21 -15 52 -15 70 l0
33 -25 -26 c-25 -24 -25 -26 -11 -72 48 -159 232 -226 369 -133 l35 24 -19
-57 c-10 -31 -51 -150 -91 -266 l-72 -210 -3 -182 -4 -181 -37 -28 c-20 -15
-48 -39 -62 -53 -14 -14 -41 -37 -59 -51 -18 -14 -38 -29 -45 -35 -25 -22 -87
-23 -113 -2 -39 31 -92 86 -118 122 -59 81 -174 178 -245 207 -118 48 -127 50
-240 53 -96 3 -126 0 -185 -18 -82 -26 -145 -57 -198 -100 -25 -19 -52 -31
-77 -33 -32 -2 -39 2 -49 23 -12 26 -24 87 -23 113 1 26 -20 114 -31 128 -5 6
-7 12 -4 12 3 0 -6 26 -20 58 -30 65 -116 174 -153 193 -14 7 -34 21 -45 31
-18 15 -75 43 -100 48 -5 1 -21 7 -35 12 -52 20 -79 23 -231 20 -113 -2 -178
2 -230 13 -131 28 -175 30 -794 30 -543 0 -648 -3 -705 -18 -8 -2 -28 -7 -45
-11 -16 -5 -43 -14 -60 -20 -16 -7 -45 -19 -62 -26 -18 -7 -33 -16 -33 -21 0
-5 -5 -9 -10 -9 -13 0 -26 -11 -88 -70 -85 -81 -118 -138 -151 -253 -20 -67
-22 -221 -5 -249 5 -7 9 -20 11 -28 2 -16 63 -149 76 -165 42 -53 134 -135
152 -135 4 0 12 -6 19 -12 8 -7 23 -20 36 -28 25 -17 60 -80 60 -107 0 -10
-18 -70 -40 -133 -22 -63 -43 -126 -46 -140 -3 -13 -10 -30 -16 -37 -6 -7 -7
-13 -3 -13 4 0 2 -6 -4 -13 -8 -11 -35 -86 -56 -157 -1 -3 -6 -16 -12 -30 -5
-14 -18 -50 -28 -80 -9 -30 -22 -63 -27 -74 -5 -10 -11 -26 -13 -35 -2 -9 -10
-34 -18 -56 -18 -52 -72 -226 -90 -290 -13 -49 -15 -197 -3 -245 10 -44 49
-134 64 -152 8 -10 11 -18 6 -18 -5 0 -2 -6 6 -13 9 -7 25 -28 37 -47 37 -60
160 -142 273 -181 83 -28 248 -31 325 -6 152 49 186 69 278 158 59 58 96 79
132 76 12 -1 50 -31 85 -67 89 -90 135 -121 255 -172 68 -29 263 -29 330 0 11
5 65 31 120 58 121 60 174 64 270 20 114 -52 189 -79 269 -93 45 -8 243 -9
301 -1 46 6 184 46 230 67 85 37 115 54 115 63 0 5 9 8 19 8 11 0 21 5 23 11
2 6 33 13 69 16 63 5 69 4 140 -36 41 -23 81 -46 89 -51 32 -20 104 -50 108
-45 3 2 13 0 24 -6 49 -26 146 -37 277 -32 175 7 350 6 386 -2 71 -16 260 -13
370 6 108 19 186 17 305 -8 14 -3 84 -6 155 -7 122 -1 251 18 304 44 44 21 93
40 106 40 8 0 15 4 15 8 0 5 24 19 53 33 28 13 57 31 64 39 7 8 13 11 13 6 0
-5 7 -2 16 5 9 7 21 14 28 16 72 19 103 13 181 -36 53 -33 166 -92 185 -97 8
-2 34 -10 57 -18 22 -9 54 -18 70 -21 15 -3 44 -9 63 -13 81 -17 289 -7 385
18 22 5 56 13 75 17 49 11 228 7 243 -5 7 -5 32 -13 57 -16 25 -4 56 -9 70
-13 35 -9 277 -9 325 -1 22 4 63 12 90 19 104 23 124 26 186 22 67 -3 114 -9
114 -13 0 -1 9 -4 21 -5 11 -1 38 -6 60 -10 130 -26 273 -20 439 19 73 17 276
108 283 127 2 5 8 9 13 9 11 0 111 77 170 132 58 54 149 161 149 175 0 6 3 13
8 15 10 5 52 66 52 77 0 5 4 11 10 13 14 5 111 199 104 209 -3 5 -1 9 4 9 5 0
12 10 15 23 3 12 11 40 17 62 31 114 37 213 15 290 -24 90 -33 115 -44 125 -3
3 -15 21 -25 40 -11 19 -42 59 -70 88 -73 76 -92 116 -94 192 -5 134 -16 201
-47 275 -18 43 -49 127 -52 145 -8 37 -5 112 7 196 19 129 5 222 -50 331 -38
73 -123 183 -143 183 -4 0 -17 9 -29 20 -12 11 -28 20 -35 20 -7 0 -13 5 -13
11 0 5 -4 7 -10 4 -5 -3 -10 -1 -10 4 0 6 -9 11 -20 11 -11 0 -20 4 -20 10 0
5 -3 9 -7 8 -5 -1 -32 6 -61 15 -115 35 -243 29 -376 -19 -23 -8 -45 -16 -51
-17 -5 -1 -12 -5 -15 -9 -24 -31 -152 2 -283 73 -65 35 -241 44 -367 18 -71
-15 -113 -17 -207 -12 -162 9 -289 9 -348 2 -80 -11 -198 -40 -222 -55 -12 -8
-30 -16 -40 -17 -25 -5 -77 -27 -83 -35 -3 -4 -21 -15 -40 -24 -41 -21 -67
-37 -90 -58 -10 -8 -44 -37 -77 -65 -33 -27 -70 -65 -83 -82 -12 -18 -34 -45
-47 -60 -14 -15 -35 -45 -47 -67 -83 -155 -109 -177 -208 -175 -145 2 -210 -1
-248 -11 -74 -20 -114 -23 -215 -20 -221 9 -308 5 -382 -17 -73 -21 -174 -25
-235 -8 l-28 7 0 152 0 151 -84 255 c-46 140 -92 279 -101 309 l-16 54 179
181 c170 170 181 184 197 239 51 178 -98 339 -283 306z m2954 -1345 c43 -20
69 -57 84 -115 15 -61 2 -115 -103 -399 -3 -8 -11 -31 -17 -50 -18 -53 -54
-152 -100 -280 -23 -63 -46 -126 -50 -140 -5 -14 -27 -77 -50 -140 -23 -63
-48 -133 -55 -155 -7 -22 -32 -92 -55 -155 -66 -183 -80 -230 -80 -274 0 -48
19 -80 60 -101 39 -20 69 -19 134 5 109 41 216 168 267 317 32 92 153 429 171
475 14 39 4 48 -56 48 -66 0 -101 25 -116 81 -14 51 1 107 38 144 38 38 61 45
157 45 46 0 87 5 90 10 4 6 22 54 42 108 100 277 116 321 130 362 43 126 73
163 149 186 42 13 54 12 100 -1 57 -16 109 -65 120 -112 7 -27 -23 -127 -126
-413 -22 -63 -38 -120 -36 -127 4 -9 30 -13 89 -13 97 0 127 -16 147 -76 22
-67 -31 -157 -109 -183 -19 -6 -77 -11 -130 -11 -102 0 -115 -4 -123 -35 -4
-11 -32 -92 -63 -180 -31 -88 -60 -171 -65 -185 -4 -14 -31 -90 -59 -169 -28
-79 -51 -155 -51 -169 0 -80 80 -139 176 -129 134 14 286 153 353 326 41 102
64 141 95 160 66 40 163 33 204 -14 43 -51 15 -189 -65 -317 -13 -21 -23 -40
-23 -44 0 -10 -88 -127 -127 -170 -47 -51 -135 -119 -184 -145 -21 -10 -72
-30 -115 -44 -94 -31 -252 -35 -342 -9 -75 22 -161 66 -191 98 -31 33 -45 33
-90 -3 -190 -148 -462 -168 -656 -46 -28 18 -63 46 -77 63 -29 34 -49 40 -70
19 -116 -113 -319 -180 -475 -157 -204 31 -341 142 -396 321 -4 12 -24 18 -74
24 -37 4 -91 18 -119 31 -28 13 -56 24 -62 24 -7 0 -23 -23 -36 -50 -14 -28
-47 -79 -75 -113 -206 -253 -553 -317 -768 -141 l-43 36 -49 -36 c-63 -46
-140 -80 -218 -95 -106 -20 -243 16 -326 85 l-28 24 -37 -23 c-96 -59 -177
-80 -288 -75 -70 3 -101 9 -145 30 -109 50 -177 133 -199 242 -18 90 -4 150
104 450 20 55 36 112 36 128 0 39 -44 83 -107 107 -44 17 -54 18 -66 7 -15
-15 -93 -221 -121 -321 -10 -33 -44 -114 -76 -180 -119 -246 -252 -381 -434
-440 -187 -60 -402 -14 -499 108 -58 72 -71 111 -70 212 1 91 6 111 68 285
115 318 139 390 142 426 4 36 1 44 -27 67 -51 44 -120 32 -194 -33 -56 -50
-90 -105 -125 -210 -18 -52 -36 -104 -41 -115 -4 -11 -22 -60 -40 -110 -17
-49 -43 -120 -56 -157 -158 -442 -156 -439 -218 -477 -23 -15 -50 -21 -89 -21
-49 0 -61 4 -93 32 -66 58 -80 128 -45 234 11 33 38 111 61 174 23 63 48 133
55 155 7 22 27 78 45 125 17 47 35 96 40 110 10 30 85 239 106 295 9 22 18 49
20 60 3 11 10 29 14 40 5 11 21 54 36 95 14 41 44 125 66 185 21 61 43 121 48
135 30 90 91 253 109 296 68 158 242 189 311 56 26 -51 15 -120 -49 -307 -93
-270 -92 -265 -76 -271 7 -3 22 -1 34 5 11 6 61 11 112 11 85 0 98 -3 165 -35
81 -39 128 -88 165 -170 27 -63 31 -186 7 -260 -28 -86 -94 -270 -100 -280 -3
-6 -10 -26 -16 -45 -6 -19 -29 -87 -52 -150 -58 -157 -58 -161 -20 -193 41
-35 73 -34 148 4 101 50 204 189 258 351 14 40 36 100 49 133 13 33 42 112 65
175 23 63 49 132 57 153 14 32 14 39 2 55 -31 39 -42 70 -47 133 -11 162 84
289 218 289 118 0 210 -98 210 -224 0 -53 1 -55 31 -61 31 -7 83 -28 169 -68
61 -28 143 -90 174 -130 78 -102 75 -188 -14 -427 -17 -47 -35 -96 -40 -110
-4 -14 -22 -63 -39 -110 -36 -100 -39 -142 -11 -170 52 -52 149 9 244 152 20
30 59 121 91 213 31 88 69 196 84 240 16 44 43 123 61 175 91 268 107 303 157
335 72 48 157 40 219 -19 74 -71 72 -94 -26 -366 -28 -80 -58 -163 -65 -185
-7 -22 -32 -92 -55 -155 -121 -333 -122 -339 -78 -380 26 -24 53 -25 102 -5
85 36 139 121 216 340 23 66 45 129 50 140 5 11 16 43 25 70 10 28 21 59 25
70 4 11 22 61 40 110 118 334 117 331 162 370 94 80 242 40 277 -75 14 -48 10
-74 -31 -185 -17 -44 -48 -129 -70 -190 -22 -60 -47 -124 -54 -142 -8 -17 -14
-35 -14 -40 0 -5 -17 -54 -39 -109 -21 -54 -50 -133 -65 -175 -51 -146 -22
-220 80 -204 96 14 193 156 257 375 2 8 -4 39 -14 67 -69 201 4 526 148 664
86 82 185 101 281 53 89 -44 127 -144 103 -271 -12 -58 -73 -246 -101 -308
-22 -47 -50 -141 -50 -165 0 -42 41 -73 105 -78 l55 -4 18 43 c11 25 35 92 55
149 20 58 55 157 77 220 23 63 50 142 61 175 11 33 24 69 29 80 5 11 25 65 44
120 150 436 171 476 298 577 48 39 126 78 208 105 79 25 274 25 350 -1 56 -19
125 -61 149 -90 20 -24 37 -19 50 13 14 33 64 82 106 104 40 22 147 22 191 1z
m-5723 -8 c48 -20 76 -56 83 -107 8 -59 -13 -108 -62 -145 l-37 -29 -226 -3
c-136 -2 -231 -8 -238 -14 -7 -5 -17 -24 -22 -42 -5 -17 -28 -83 -51 -146 -23
-63 -58 -164 -79 -225 -48 -137 -204 -577 -236 -665 -13 -36 -42 -119 -65
-185 -86 -251 -152 -426 -168 -452 -20 -31 -54 -51 -117 -68 -48 -12 -61 -12
-105 1 -63 19 -107 56 -121 103 -13 43 -8 62 91 341 34 96 68 193 75 215 7 22
32 92 55 155 23 63 48 133 55 155 15 45 115 332 200 570 89 250 87 244 62 250
-12 3 -122 6 -244 7 l-222 3 -29 28 c-42 40 -58 101 -38 147 26 63 68 95 151
113 11 3 298 5 638 6 503 1 624 -2 650 -13z"/>
<path d="M7301 5435 c-59 -34 -117 -104 -134 -160 -5 -18 -75 -215 -90 -255
-3 -8 -22 -62 -41 -120 -20 -58 -48 -139 -62 -180 -182 -515 -181 -508 -145
-586 39 -85 145 -110 249 -58 86 43 190 173 239 299 23 60 95 262 118 330 24
71 80 228 137 385 42 113 47 187 18 243 -12 23 -32 53 -43 65 -60 66 -168 81
-246 37z"/>
<path d="M4775 6850 c-22 -11 -136 -116 -254 -233 -233 -232 -261 -270 -261
-362 0 -99 78 -206 169 -233 113 -34 187 -3 324 135 l98 99 -38 -4 c-32 -3
-52 -18 -123 -87 -92 -90 -117 -105 -185 -105 -57 0 -92 14 -134 53 -60 57
-77 138 -46 215 10 24 93 114 233 255 192 192 223 219 265 232 112 33 222 -32
247 -148 13 -56 14 -57 33 -40 43 40 -6 149 -93 208 -39 26 -56 30 -120 33
-59 2 -83 -2 -115 -18z"/>
</g>
</svg>
